# xmcd
#
# Track frame offsets: 
#        150
#        20367
#        35712
#        51872
#        67842
#        82885
#        104628
#        124077
#        144208
#        160954
#        171156
#        188062
#
# Disc length: 2770 seconds
#
# Revision: 0
# Processed by: cddbd v1.5.2PL0 Copyright (c) Steve Scherf et al.
# Submitted via: ExactAudioCopy v0.95b4
#
DISCID=9a0ad00c
DTITLE=SAP BIG BAND - Count to ten
DYEAR=2006
DGENRE=Big Band
TTITLE0=Moten Swing
TTITLE1=Fun Time
TTITLE2=It's oh, so nice
TTITLE3=Miss Fine
TTITLE4=Switch in Time
TTITLE5=Li'l Darlin'
TTITLE6=Hava Nice Day
TTITLE7=Shiny Stockings
TTITLE8=Hay Burner
TTITLE9=Too Close for Comfort
TTITLE10=The Queen Bee
TTITLE11=Girl Talk
EXTD=
EXTT0=
EXTT1=
EXTT2=
EXTT3=
EXTT4=
EXTT5=
EXTT6=
EXTT7=
EXTT8=
EXTT9=
EXTT10=
EXTT11=
PLAYORDER=
